# xmcd
#
# Track frame offsets:
#	150
#	18751
#	34899
#	45454
#	60721
#	73309
#	98854
#	114458
#	128521
#	149534
#	166099
#	179676
#
# Disc length: 2587 seconds
#
# Revision: 2
# Processed by: cddbd v1.4PL0 Copyright (c) Steve Scherf et al.
# Submitted via: audiograbber 1.81.01
#
DISCID=a50a190c
DTITLE=Alvin 'Youngblood' Hart - Down In The Alley
DYEAR=2002
DGENRE=Blues
TTITLE0=Judge Bouche
TTITLE1=How Long Before I Change My Clothes
TTITLE2=Deep Blue Sea
TTITLE3=Jinx Blues
TTITLE4=Bootlegger's Blues
TTITLE5=Alberta
TTITLE6=Broke And Hungry
TTITLE7=Devil Got My Woman
TTITLE8=Chilly Winds
TTITLE9=Tom Rushen Blues
TTITLE10=Please Baby
TTITLE11=Motherless Child
EXTD=
EXTT0=
EXTT1=
EXTT2=
EXTT3=
EXTT4=
EXTT5=
EXTT6=
EXTT7=
EXTT8=
EXTT9=
EXTT10=
EXTT11=
PLAYORDER=
